<?xml version="1.0" encoding="utf-8"?>
<!-- Generator: Adobe Illustrator 18.1.1, SVG Export Plug-In . SVG Version: 6.00 Build 0)  -->
<!DOCTYPE svg PUBLIC "-//W3C//DTD SVG 1.1//EN" "http://www.w3.org/Graphics/SVG/1.1/DTD/svg11.dtd">
<svg version="1.1" id="Layer_1" xmlns="http://www.w3.org/2000/svg" xmlns:xlink="http://www.w3.org/1999/xlink" x="0px" y="0px"
	 viewBox="0 0 200 200" enable-background="new 0 0 200 200" xml:space="preserve">
<g>
	<g>
		<path fill="#1B2630" d="M7.8,110.7H1.5v-6h18.6v6h-6.3v33.5h-6V110.7z"/>
		<path fill="#1B2630" d="M46.7,104.7H53l-6.2,39.5h-5.7l-3.4-21.8l-3.2,21.8h-5.7l-6.6-39.5h6.2l3.1,21.2l2.9-21.2h6.2l3.1,21.2
			L46.7,104.7z"/>
		<path fill="#1B2630" d="M61.7,144.2h-6v-39.5h6V144.2z"/>
		<path fill="#1B2630" d="M72.7,104.6l7.9,26.6v-26.6h6v39.6h-6.4l-8.2-25.3v25.3h-6v-39.6H72.7z"/>
		<path fill="#1B2630" d="M106.8,144.2h-6v-39.6h17v6h-11v10.8h8v6h-8V144.2z"/>
		<path fill="#1B2630" d="M127.4,144.2h-6v-39.5h6V144.2z"/>
		<path fill="#1B2630" d="M138.8,104.6l7.9,26.6v-26.6h6v39.6h-6.4l-8.2-25.3v25.3h-6v-39.6H138.8z"/>
		<path fill="#1B2630" d="M165.6,144.7c-2.6,0-4.9-0.9-6.7-2.8c-1.8-1.8-2.8-4.1-2.8-6.7v-21.6c0-2.6,0.9-4.9,2.8-6.7
			c1.9-1.8,4.1-2.8,6.7-2.8c2.6,0,4.9,0.9,6.7,2.8c1.8,1.9,2.7,4.1,2.7,6.7v4.5h-6.2v-4.6c0-0.9-0.3-1.8-1-2.4c-0.7-0.7-1.5-1-2.4-1
			c-0.9,0-1.8,0.3-2.4,1c-0.7,0.7-1,1.5-1,2.4v21.6c0,0.9,0.3,1.8,1,2.4c0.7,0.7,1.5,1,2.4,1c0.9,0,1.8-0.3,2.4-1
			c0.7-0.7,1-1.5,1-2.4v-5.5h6.2v5.5c0,2.6-0.9,4.9-2.8,6.7C170.4,143.8,168.2,144.7,165.6,144.7z"/>
		<path fill="#1B2630" d="M184.6,127.4v16.8h-6v-39.5h6v16.8h7.2v-16.8h6v39.5h-6v-16.8H184.6z"/>
	</g>
	<g>
		<path fill="#1B2630" d="M64.9,161.4c0.3,0.3,0.6,0.6,0.9,1c0.2,0.4,0.4,0.8,0.6,1.1c0.2,0.4,0.3,0.8,0.3,1.2
			c0.1,0.4,0.1,0.8,0.1,1.1h-1.3h-1.3c0-0.1,0-0.2,0-0.4c0-0.2-0.1-0.4-0.1-0.6c-0.1-0.2-0.1-0.5-0.3-0.7c-0.1-0.2-0.3-0.5-0.5-0.7
			c-0.2-0.2-0.4-0.4-0.7-0.5c-0.3-0.1-0.7-0.2-1.1-0.2h-3.1v3.1h-2.6v-12.5h5.6c0,0,0.2,0,0.4,0c0.2,0,0.5,0.1,0.7,0.2
			c0.3,0.1,0.6,0.2,0.9,0.4c0.3,0.2,0.7,0.4,1,0.7c0.9,0.9,1.4,2.2,1.4,3.9c0,0.6-0.1,1.2-0.3,1.7C65.5,160.6,65.3,161,64.9,161.4z
			 M61.6,160.2c0.1,0,0.3,0,0.5-0.1c0.2,0,0.4-0.1,0.6-0.2c0.2-0.1,0.4-0.3,0.5-0.5c0.1-0.2,0.2-0.5,0.2-0.9c0-0.6-0.1-1.1-0.2-1.4
			c-0.2-0.3-0.3-0.6-0.5-0.8c-0.2-0.2-0.4-0.3-0.6-0.3c-0.2-0.1-0.4-0.1-0.5-0.1h-3.1v4.3H61.6z"/>
		<path fill="#1B2630" d="M73.9,165.8c-0.9,0-1.7-0.2-2.4-0.5c-0.8-0.3-1.4-0.8-2-1.3c-0.6-0.6-1-1.2-1.3-2
			c-0.3-0.8-0.5-1.6-0.5-2.4s0.2-1.7,0.5-2.4c0.3-0.8,0.8-1.4,1.3-2c0.6-0.6,1.2-1,2-1.3c0.8-0.3,1.6-0.5,2.4-0.5
			c0.9,0,1.7,0.2,2.4,0.5c0.8,0.3,1.4,0.8,2,1.3c0.6,0.6,1,1.2,1.3,2c0.3,0.8,0.5,1.6,0.5,2.4s-0.2,1.7-0.5,2.4
			c-0.3,0.8-0.8,1.4-1.3,2c-0.6,0.6-1.2,1-2,1.3C75.6,165.6,74.8,165.8,73.9,165.8z M73.9,155.9c-0.5,0-1,0.1-1.4,0.3
			c-0.4,0.2-0.8,0.5-1.2,0.8c-0.3,0.3-0.6,0.7-0.8,1.2c-0.2,0.4-0.3,0.9-0.3,1.4s0.1,1,0.3,1.4c0.2,0.4,0.5,0.8,0.8,1.2
			c0.3,0.3,0.7,0.6,1.2,0.8c0.4,0.2,0.9,0.3,1.4,0.3c0.5,0,1-0.1,1.4-0.3c0.4-0.2,0.8-0.5,1.2-0.8c0.3-0.3,0.6-0.7,0.8-1.2
			c0.2-0.4,0.3-0.9,0.3-1.4s-0.1-1-0.3-1.4c-0.2-0.4-0.5-0.8-0.8-1.2c-0.3-0.3-0.7-0.6-1.2-0.8C74.9,156,74.4,155.9,73.9,155.9z"/>
		<path fill="#1B2630" d="M89.6,165.8l-0.6-1.8h-5l-0.6,1.8h-2.8l4.5-12.5h3.1l4.5,12.5H89.6z M84.8,161.4H88l-1.6-4.5L84.8,161.4z"
			/>
		<path fill="#1B2630" d="M97.8,165.9c-0.6,0-1.2-0.1-1.8-0.3c-0.6-0.2-1-0.5-1.5-0.8c-0.4-0.3-0.8-0.7-1-1.2
			c-0.2-0.5-0.4-0.9-0.4-1.5h2.6c0,0.1,0,0.2,0.1,0.4c0.1,0.1,0.2,0.3,0.4,0.4c0.2,0.1,0.4,0.2,0.6,0.3c0.2,0.1,0.5,0.1,0.9,0.1
			c0.5,0,0.9-0.1,1.2-0.2c0.3-0.1,0.5-0.3,0.7-0.4c0.1-0.1,0.3-0.3,0.3-0.6c0-0.1,0-0.3,0-0.4c0-0.1-0.1-0.3-0.2-0.4
			c-0.2-0.2-0.4-0.3-0.8-0.5c-0.4-0.1-0.9-0.2-1.4-0.2c-0.4,0-0.8,0-1.2-0.1c-0.3-0.1-0.7-0.2-0.9-0.3c-0.3-0.1-0.5-0.3-0.7-0.4
			c-0.2-0.1-0.4-0.3-0.5-0.4c-0.3-0.3-0.4-0.6-0.6-0.9c-0.1-0.3-0.2-0.6-0.3-0.9c-0.1-0.3-0.1-0.5-0.1-0.7c0-0.2,0-0.3,0-0.4
			c0-0.1,0-0.2,0-0.4c0-0.2,0.1-0.4,0.1-0.6c0.1-0.2,0.2-0.4,0.3-0.7c0.1-0.2,0.3-0.5,0.5-0.7c0.8-0.8,2-1.2,3.5-1.2
			c1.5,0,2.6,0.4,3.4,1.3c0.3,0.3,0.5,0.6,0.7,0.9s0.3,0.6,0.3,0.9c0.1,0.3,0.1,0.5,0.1,0.7c0,0.2,0,0.3,0,0.4l-2.6-0.1v0
			c0-0.1,0-0.3-0.1-0.5c0-0.2-0.1-0.3-0.3-0.5c-0.1-0.2-0.3-0.3-0.6-0.4c-0.3-0.1-0.6-0.2-1-0.2c-0.4,0-0.7,0-1,0.1
			c-0.2,0.1-0.4,0.2-0.6,0.3c-0.1,0.1-0.2,0.2-0.3,0.4c0,0.1-0.1,0.2-0.1,0.3v0.1l0,0c0,0.1,0,0.2,0,0.3c0,0.1,0.1,0.2,0.1,0.3
			c0,0.1,0.1,0.2,0.2,0.3c0.3,0.3,0.7,0.4,1.3,0.4c1.6,0,2.9,0.3,3.7,1c0.9,0.7,1.3,1.7,1.3,3c0,0.4-0.1,0.8-0.3,1.2
			c-0.2,0.4-0.5,0.8-0.8,1.2c-0.4,0.4-0.9,0.7-1.5,0.9C99.5,165.8,98.7,165.9,97.8,165.9z"/>
		<path fill="#1B2630" d="M112.6,155.9h-2.9v9.9h-2.6v-9.9h-2.9v-2.6h8.4V155.9z"/>
		<path fill="#1B2630" d="M117.4,155.9v2.5h5.6v2.6h-5.6v2.1h5.8v2.6h-8.4v-12.5h8.4v2.6H117.4z"/>
		<path fill="#1B2630" d="M135.1,161.4c0.3,0.3,0.6,0.6,0.9,1c0.2,0.4,0.4,0.8,0.6,1.1c0.2,0.4,0.3,0.8,0.3,1.2
			c0.1,0.4,0.1,0.8,0.1,1.1h-1.3h-1.3c0-0.1,0-0.2,0-0.4c0-0.2-0.1-0.4-0.1-0.6c-0.1-0.2-0.1-0.5-0.3-0.7c-0.1-0.2-0.3-0.5-0.5-0.7
			c-0.2-0.2-0.4-0.4-0.7-0.5c-0.3-0.1-0.7-0.2-1.1-0.2h-3.1v3.1h-2.6v-12.5h5.6c0,0,0.2,0,0.4,0c0.2,0,0.5,0.1,0.7,0.2
			c0.3,0.1,0.6,0.2,0.9,0.4c0.3,0.2,0.7,0.4,1,0.7c0.9,0.9,1.4,2.2,1.4,3.9c0,0.6-0.1,1.2-0.3,1.7
			C135.7,160.6,135.5,161,135.1,161.4z M131.8,160.2c0.1,0,0.3,0,0.5-0.1c0.2,0,0.4-0.1,0.6-0.2c0.2-0.1,0.4-0.3,0.5-0.5
			c0.1-0.2,0.2-0.5,0.2-0.9c0-0.6-0.1-1.1-0.2-1.4c-0.2-0.3-0.3-0.6-0.5-0.8c-0.2-0.2-0.4-0.3-0.6-0.3c-0.2-0.1-0.4-0.1-0.5-0.1
			h-3.1v4.3H131.8z"/>
		<path fill="#1B2630" d="M143.5,161.8v4h-2.6v-3.9l-4-8.5h2.8l2.5,6.1l2.5-6.1h2.8L143.5,161.8z"/>
	</g>
	<rect x="1.8" y="158.8" fill="#1B2630" width="49.6" height="0.7"/>
	<rect x="148.8" y="158.8" fill="#1B2630" width="49.7" height="0.7"/>
	<rect x="1.8" y="96" fill="#1B2630" width="196.7" height="0.7"/>
	<rect x="1.8" y="93.4" fill="#1B2630" width="196.7" height="1.4"/>
	<g>
		<path fill="#1B2630" d="M36.5,85c1.7,0,1.9-0.4,2.2-0.4c0.6,0.2,1.6,0.2,2.3,0.1c0.6,0.5,1.6,1.4,7.1-1.3c1,0.1,2.5,0.6,4.2,0.7
			c1.1,1.4,2.2,2.3,4.2,2.1c1.6,0.6,2.2,0.5,2.2,0.5l0,0.1c0.2-0.1,0.4-0.1,0.7-0.1c0.3,0,0.6,0.1,0.9,0.2c0,0,0,0,0,0
			c0.8,0.1,7.1,0.4,11.2-0.5c4.2-1,8.8-3.4,11.4-5.3c2.5-1.9,8.6-8.8,9.2-15.3c0.7-6.5-0.9-10.3-2.2-13.6c-1.2-3.3-0.1-5.5,0.4-6.6
			c0.5-1.1,1-3.6,1-4c0.1-0.3,3.7-4.9,3.7-4.9s-1.8-1.6-8.6-2c-0.7-0.3-4.5-1.3-10.6,3.1c-6.1,4.4-4.3,9.6-9.9,15.3
			c-5.6,5.7-10.9,13-12.1,14.2c-1.2,1.2-4.2,3.4-4.2,5.6c1.2-1,1.2-1,1.2-1l0.1,0.7h1.6c0,0-3,3.1-4.7,4.3
			C46.1,78,37.7,84.4,36.5,85z M82.7,40.2c0.5-2.7,2.8-2.5,2.8-2.5s1.5,1.3,0.4,3.1C84.9,41.4,84,41.1,82.7,40.2z"/>
		<path fill="#1B2630" d="M151.4,76.8c-1.8-1.2-4.7-4.3-4.7-4.3h1.6l0.1-0.7c0,0,0,0,1.2,1c0-2.1-3.1-4.4-4.2-5.6
			c-1.2-1.2-6.4-8.5-12.1-14.2c-5.6-5.7-3.8-10.9-9.9-15.3c-6.1-4.4-9.9-3.4-10.6-3.1c-6.7,0.5-8.6,2-8.6,2s3.6,4.6,3.7,4.9
			c0.1,0.3,0.5,2.9,1,4c0.5,1.1,1.6,3.3,0.4,6.6c-1.2,3.3-2.8,7.1-2.2,13.6c0.7,6.5,6.7,13.4,9.2,15.3c2.5,1.9,7.2,4.3,11.4,5.3
			c4.2,1,10.5,0.6,11.2,0.5c0,0,0,0,0,0c0.3-0.1,0.5-0.2,0.9-0.2c0.2,0,0.5,0,0.7,0.1l0-0.1c0,0,0.6,0.1,2.2-0.5
			c2,0.2,3.1-0.7,4.2-2.1c1.7-0.1,3.2-0.6,4.2-0.7c5.6,2.7,6.5,1.8,7.1,1.3c0.7,0.1,1.8,0.1,2.3-0.1c0.3,0,0.5,0.4,2.2,0.4
			C161.5,84.4,153.1,78,151.4,76.8z M113.3,40.8c-1.1-1.8,0.4-3.1,0.4-3.1s2.3-0.3,2.8,2.5C115.2,41.1,114.4,41.4,113.3,40.8z"/>
	</g>
	<rect x="1.8" y="161" fill="#1B2630" width="49.6" height="0.2"/>
	<rect x="148.8" y="161" fill="#1B2630" width="49.7" height="0.2"/>
</g>
</svg>
