<?xml version="1.0" encoding="utf-8"?>
<!-- Generator: Adobe Illustrator 18.1.1, SVG Export Plug-In . SVG Version: 6.00 Build 0)  -->
<!DOCTYPE svg PUBLIC "-//W3C//DTD SVG 1.1//EN" "http://www.w3.org/Graphics/SVG/1.1/DTD/svg11.dtd">
<svg version="1.1" id="Layer_1" xmlns="http://www.w3.org/2000/svg" xmlns:xlink="http://www.w3.org/1999/xlink" x="0px" y="0px"
	 viewBox="0 0 50 50" enable-background="new 0 0 50 50" xml:space="preserve">
<g>
	<g>
		<rect x="1.5" y="1.5" fill="none" stroke="#000000" stroke-width="1.8781" stroke-miterlimit="10" width="47" height="47"/>
	</g>
	<g>
		<g>
			<path fill="#1B2630" d="M27.7,30.4l-1.2-1c-0.4-0.3-0.9-0.7-0.9-1.5c0-0.8,0.5-1.2,1-1.7c1.4-1.1,2.9-2.3,2.9-4.8
				c0-2.6-1.6-4-2.4-4.6h2.1l2.2-1.4h-6.7c-1.8,0-4.5,0.4-6.4,2c-1.5,1.3-2.2,3-2.2,4.6c0,2.7,2,5.3,5.6,5.3c0.3,0,0.7,0,1.1-0.1
				c-0.2,0.4-0.3,0.7-0.3,1.3c0,1.1,0.5,1.7,1,2.3c-1.5,0.1-4.4,0.3-6.5,1.6c-2,1.2-2.6,2.9-2.6,4.2c0,2.5,2.4,4.9,7.3,4.9
				c5.8,0,8.9-3.2,8.9-6.4C30.6,32.9,29.2,31.7,27.7,30.4z M23.3,26.5c-2.9,0-4.2-3.8-4.2-6.1c0-0.9,0.2-1.8,0.7-2.5
				c0.5-0.7,1.5-1.1,2.4-1.1c2.8,0,4.3,3.8,4.3,6.3c0,0.6-0.1,1.7-0.8,2.5C25.1,26.1,24.1,26.5,23.3,26.5z M23.3,40.2
				c-3.6,0-6-1.7-6-4.2c0-2.4,2.2-3.2,2.9-3.5c1.4-0.5,3.3-0.5,3.6-0.5c0.3,0,0.5,0,0.8,0c2.6,1.8,3.7,2.8,3.7,4.5
				C28.3,38.7,26.6,40.2,23.3,40.2z"/>
			<polygon fill="#1B2630" points="36.3,26.5 36.3,23.1 34.7,23.1 34.7,26.5 31.3,26.5 31.3,28.2 34.7,28.2 34.7,31.6 36.3,31.6 
				36.3,28.2 39.7,28.2 39.7,26.5 			"/>
		</g>
	</g>
</g>
</svg>
