<?xml version="1.0" encoding="utf-8"?>
<!-- Generator: Adobe Illustrator 18.1.1, SVG Export Plug-In . SVG Version: 6.00 Build 0)  -->
<!DOCTYPE svg PUBLIC "-//W3C//DTD SVG 1.1//EN" "http://www.w3.org/Graphics/SVG/1.1/DTD/svg11.dtd">
<svg version="1.1" id="Layer_1" xmlns="http://www.w3.org/2000/svg" xmlns:xlink="http://www.w3.org/1999/xlink" x="0px" y="0px"
	 viewBox="0 0 50 50" enable-background="new 0 0 50 50" xml:space="preserve">
<g>
	<rect x="1.5" y="1.5" fill="none" stroke="#000000" stroke-width="1.5138" stroke-miterlimit="10" width="47" height="47"/>
	<g id="layer1_1_" transform="translate(-282.32053,-396.30734)" inkscape:label="Layer 1" inkscape:groupmode="layer">
		<path id="path5_1_" inkscape:connector-curvature="0" fill="#1B2630" d="M325.9,412.4c-1.4,0.6-2.8,1-4.4,1.2
			c1.6-0.9,2.8-2.4,3.4-4.2c-1.5,0.9-3.1,1.5-4.8,1.9c-2.6-2.7-7.1-3.6-11.4-0.2c-1.7,2.4-2.2,5-1.6,7.2c-6.3-0.3-12-3.4-15.7-8
			c-0.7,1.1-1,2.4-1,3.8c0,2.6,1.3,5,3.4,6.3c-1.3,0-2.4-0.4-3.5-1c0,3.7,2.6,6.9,6.1,7.6c-0.6,0.2-1.3,0.3-2,0.3
			c-0.5,0-1,0-1.4-0.1c1,3,3.8,5.2,7.1,5.3c-2.6,2-5.9,3.3-9.5,3.3c-0.6,0-1.2,0-1.8-0.1c3.4,2.2,7.4,3.4,11.7,3.4
			c14,0,21.7-11.6,21.7-21.7c0-0.3,0-0.7,0-1C323.6,415.2,324.9,413.9,325.9,412.4L325.9,412.4z"/>
	</g>
</g>
</svg>
