<?xml version="1.0" encoding="utf-8"?>
<!-- Generator: Adobe Illustrator 18.1.1, SVG Export Plug-In . SVG Version: 6.00 Build 0)  -->
<!DOCTYPE svg PUBLIC "-//W3C//DTD SVG 1.1//EN" "http://www.w3.org/Graphics/SVG/1.1/DTD/svg11.dtd">
<svg version="1.1" id="Layer_1" xmlns="http://www.w3.org/2000/svg" xmlns:xlink="http://www.w3.org/1999/xlink" x="0px" y="0px"
	 viewBox="0 0 50 50" enable-background="new 0 0 50 50" xml:space="preserve">
<g>
	<g>
		<rect x="1.4" y="1.4" fill="none" stroke="#000000" stroke-width="1.8822" stroke-miterlimit="10" width="47.1" height="47.1"/>
	</g>
	<g>
		<g>
			<path fill="#1B2630" d="M32.7,36.8c-0.6,0.3-1.8,0.5-2.6,0.6c-2.6,0.1-3.1-1.8-3.1-3.2V24.1h6.5v-4.9H27v-8.2c0,0-4.7,0-4.7,0
				c-0.1,0-0.2,0.1-0.2,0.2c-0.3,2.5-1.5,6.9-6.4,8.7v4.2H19v10.6c0,3.6,2.7,8.8,9.7,8.6c2.4,0,5-1,5.6-1.9L32.7,36.8"/>
		</g>
	</g>
</g>
</svg>
