<?xml version="1.0" encoding="utf-8"?>
<!-- Generator: Adobe Illustrator 18.1.1, SVG Export Plug-In . SVG Version: 6.00 Build 0)  -->
<!DOCTYPE svg PUBLIC "-//W3C//DTD SVG 1.1//EN" "http://www.w3.org/Graphics/SVG/1.1/DTD/svg11.dtd">
<svg version="1.1" id="Layer_1" xmlns="http://www.w3.org/2000/svg" xmlns:xlink="http://www.w3.org/1999/xlink" x="0px" y="0px"
	 viewBox="0 0 50 50" enable-background="new 0 0 50 50" xml:space="preserve">
<g>
	<rect x="1.3" y="1.3" fill="none" stroke="#000000" stroke-width="1.8909" stroke-miterlimit="10" width="47.4" height="47.4"/>
	<circle fill="#1B2630" cx="14.7" cy="35.6" r="3"/>
	<path fill="#1B2630" d="M29.5,35.6c0-5.8-3.4-14.9-14.8-14.9v0c-1.7,0-3,1.3-3,3s1.3,3,3,3v0c2.7,0,8.8,0.8,8.8,8.9l0,0l0,0
		c0,1.7,1.3,3,3,3C28.2,38.6,29.5,37.3,29.5,35.6L29.5,35.6L29.5,35.6z"/>
	<path fill="#1B2630" d="M14.7,10.5l-1.5,0c-3,2.7-1.2,6,1.4,6l0,0c4.9,0,19.9,3.3,19,20.5c2.7,3.1,6.1,1.2,6.1-1.4
		C39.8,21.4,30.9,10.5,14.7,10.5z"/>
</g>
</svg>
