<?xml version="1.0" encoding="utf-8"?>
<!-- Generator: Adobe Illustrator 18.1.1, SVG Export Plug-In . SVG Version: 6.00 Build 0)  -->
<!DOCTYPE svg PUBLIC "-//W3C//DTD SVG 1.1//EN" "http://www.w3.org/Graphics/SVG/1.1/DTD/svg11.dtd">
<svg version="1.1" id="Layer_1" xmlns="http://www.w3.org/2000/svg" xmlns:xlink="http://www.w3.org/1999/xlink" x="0px" y="0px"
	 viewBox="0 0 33 330.3" enable-background="new 0 0 33 330.3" xml:space="preserve">
<g>
	<rect x="1" y="1" fill="none" stroke="#000000" stroke-width="1.2377" stroke-miterlimit="10" width="31" height="31"/>
	<circle fill="#1B2630" cx="9.8" cy="23.4" r="2"/>
	<path fill="#1B2630" d="M19.5,23.4c0-3.8-2.2-9.8-9.7-9.8v0c-1.1,0-2,0.9-2,2s0.9,2,2,2v0c1.8,0,5.8,0.5,5.8,5.8l0,0l0,0
		c0,1.1,0.9,2,2,2S19.5,24.5,19.5,23.4L19.5,23.4L19.5,23.4z"/>
	<path fill="#1B2630" d="M9.8,7L8.8,7c-2,1.7-0.8,3.9,0.9,3.9l0,0c3.2,0,13,2.2,12.5,13.4c1.7,2,4,0.8,4-0.9C26.2,14.1,20.4,7,9.8,7
		z"/>
</g>
<g>
	<rect x="1" y="34.2" fill="none" stroke="#000000" stroke-width="1.2377" stroke-miterlimit="10" width="31" height="31"/>
	<path fill="#1B2630" d="M22.8,61.7h-5.2V50.9H16v-3.7h1.7v-2.9c0-2.2,1.8-4,4-4h4.5v3.6h-2.4c-0.5,0-1,0.4-1,1l0,2h3.4v4h-3.4
		L22.8,61.7z"/>
</g>
<g>
	<g>
		<rect x="1" y="67.2" fill="none" stroke="#000000" stroke-width="1.2377" stroke-miterlimit="10" width="31" height="31"/>
	</g>
	<g>
		<g>
			<path fill="#1B2630" d="M21.6,90.4c-0.4,0.2-1.2,0.4-1.7,0.4c-1.7,0-2-1.2-2-2.1v-6.6h4.3v-3.2h-4.3v-5.4c0,0-3.1,0-3.1,0
				c-0.1,0-0.1,0-0.2,0.2c-0.2,1.7-1,4.6-4.2,5.7v2.7h2.2V89c0,2.4,1.8,5.8,6.4,5.7c1.6,0,3.3-0.7,3.7-1.2L21.6,90.4"/>
		</g>
	</g>
</g>
<g>
	<rect x="1" y="100.2" fill="none" stroke="#000000" stroke-miterlimit="10" width="31" height="31"/>
	<g id="layer1_2_" transform="translate(-282.32053,-396.30734)" inkscape:label="Layer 1" inkscape:groupmode="layer">
		<path id="path5_2_" inkscape:connector-curvature="0" fill="#1B2630" d="M311.1,506.1c-0.9,0.4-1.9,0.7-2.9,0.8
			c1-0.6,1.8-1.6,2.2-2.8c-1,0.6-2.1,1-3.2,1.2c-1.7-1.8-4.7-2.4-7.5-0.1c-1.1,1.6-1.4,3.3-1.1,4.7c-4.2-0.2-7.9-2.2-10.4-5.3
			c-0.4,0.7-0.7,1.6-0.7,2.5c0,1.7,0.9,3.3,2.2,4.2c-0.8,0-1.6-0.3-2.3-0.6c0,2.5,1.7,4.5,4,5c-0.4,0.1-0.9,0.2-1.3,0.2
			c-0.3,0-0.6,0-0.9-0.1c0.6,2,2.5,3.5,4.7,3.5c-1.7,1.4-3.9,2.2-6.3,2.2c-0.4,0-0.8,0-1.2-0.1c2.2,1.4,4.9,2.3,7.7,2.3
			c9.3,0,14.3-7.7,14.3-14.3c0-0.2,0-0.4,0-0.7C309.6,508,310.4,507.1,311.1,506.1L311.1,506.1z"/>
	</g>
</g>
<g>
	<g>
		<rect x="1" y="133.2" fill="none" stroke="#000000" stroke-width="1.24" stroke-miterlimit="10" width="31" height="31"/>
	</g>
	<g>
		<g>
			<path fill="#1B2630" d="M18.3,152.3l-0.8-0.6c-0.2-0.2-0.6-0.5-0.6-1c0-0.5,0.3-0.8,0.6-1.1c0.9-0.7,1.9-1.5,1.9-3.2
				c0-1.7-1.1-2.6-1.6-3h1.4l1.5-0.9h-4.4c-1.2,0-3,0.3-4.2,1.3c-1,0.8-1.4,2-1.4,3c0,1.8,1.3,3.5,3.7,3.5c0.2,0,0.5,0,0.7,0
				c-0.1,0.3-0.2,0.5-0.2,0.9c0,0.7,0.4,1.1,0.7,1.5c-1,0.1-2.9,0.2-4.3,1c-1.3,0.8-1.7,1.9-1.7,2.7c0,1.7,1.6,3.2,4.8,3.2
				c3.9,0,5.9-2.1,5.9-4.2C20.2,153.9,19.3,153.1,18.3,152.3z M15.4,149.7c-1.9,0-2.8-2.5-2.8-4c0-0.6,0.1-1.2,0.5-1.7
				c0.4-0.5,1-0.7,1.6-0.7c1.9,0,2.8,2.5,2.8,4.1c0,0.4,0,1.1-0.6,1.6C16.6,149.5,16,149.7,15.4,149.7z M15.4,158.8
				c-2.4,0-3.9-1.1-3.9-2.7c0-1.6,1.4-2.1,1.9-2.3c0.9-0.3,2.2-0.4,2.4-0.4c0.2,0,0.3,0,0.5,0c1.7,1.2,2.4,1.8,2.4,3
				C18.7,157.7,17.6,158.8,15.4,158.8z"/>
			<polygon fill="#1B2630" points="24,149.7 24,147.4 22.9,147.4 22.9,149.7 20.7,149.7 20.7,150.8 22.9,150.8 22.9,153.1 24,153.1 
				24,150.8 26.3,150.8 26.3,149.7 			"/>
		</g>
	</g>
</g>
<g>
	<rect x="1" y="166.2" fill="none" stroke="#DB5333" stroke-width="1.2377" stroke-miterlimit="10" width="31" height="31"/>
	<circle fill="#DB5333" cx="9.8" cy="188.7" r="2"/>
	<path fill="#DB5333" d="M19.5,188.7c0-3.8-2.2-9.8-9.7-9.8v0c-1.1,0-2,0.9-2,2c0,1.1,0.9,2,2,2v0c1.8,0,5.8,0.5,5.8,5.8l0,0l0,0
		c0,1.1,0.9,2,2,2S19.5,189.7,19.5,188.7L19.5,188.7L19.5,188.7z"/>
	<path fill="#DB5333" d="M9.8,172.2H8.8c-2,1.7-0.8,3.9,0.9,3.9l0,0c3.2,0,13,2.2,12.5,13.4c1.7,2,4,0.8,4-0.9
		C26.2,179.3,20.4,172.2,9.8,172.2z"/>
</g>
<g>
	<rect x="1" y="199.4" fill="none" stroke="#DB5333" stroke-width="1.2377" stroke-miterlimit="10" width="31" height="31"/>
	<path fill="#DB5333" d="M22.8,226.9h-5.2v-10.8H16v-3.7h1.7v-2.9c0-2.2,1.8-4,4-4h4.5v3.6h-2.4c-0.5,0-1,0.4-1,1l0,2h3.4v4h-3.4
		L22.8,226.9z"/>
</g>
<g>
	<g>
		<rect x="1" y="232.4" fill="none" stroke="#DB5333" stroke-width="1.2377" stroke-miterlimit="10" width="31" height="31"/>
	</g>
	<g>
		<g>
			<path fill="#DB5333" d="M21.6,255.7c-0.4,0.2-1.2,0.4-1.7,0.4c-1.7,0-2-1.2-2-2.1v-6.6h4.3v-3.2h-4.3v-5.4c0,0-3.1,0-3.1,0
				c-0.1,0-0.1,0-0.2,0.2c-0.2,1.7-1,4.6-4.2,5.7v2.7h2.2v6.9c0,2.4,1.8,5.8,6.4,5.7c1.6,0,3.3-0.7,3.7-1.2L21.6,255.7"/>
		</g>
	</g>
</g>
<g>
	<rect x="1" y="265.4" fill="none" stroke="#DB5333" stroke-miterlimit="10" width="31" height="31"/>
	<g id="layer1_4_" transform="translate(-282.32053,-396.30734)" inkscape:label="Layer 1" inkscape:groupmode="layer">
		<path id="path5_4_" inkscape:connector-curvature="0" fill="#DB5333" d="M311.1,671.4c-0.9,0.4-1.9,0.7-2.9,0.8
			c1-0.6,1.8-1.6,2.2-2.8c-1,0.6-2.1,1-3.2,1.2c-1.7-1.8-4.7-2.4-7.5-0.1c-1.1,1.6-1.4,3.3-1.1,4.7c-4.2-0.2-7.9-2.2-10.4-5.3
			c-0.4,0.7-0.7,1.6-0.7,2.5c0,1.7,0.9,3.3,2.2,4.2c-0.8,0-1.6-0.3-2.3-0.6c0,2.5,1.7,4.5,4,5c-0.4,0.1-0.9,0.2-1.3,0.2
			c-0.3,0-0.6,0-0.9-0.1c0.6,2,2.5,3.5,4.7,3.5c-1.7,1.4-3.9,2.2-6.3,2.2c-0.4,0-0.8,0-1.2-0.1c2.2,1.4,4.9,2.3,7.7,2.3
			c9.3,0,14.3-7.7,14.3-14.3c0-0.2,0-0.4,0-0.7C309.6,673.3,310.4,672.4,311.1,671.4L311.1,671.4z"/>
	</g>
</g>
<g>
	<g>
		<rect x="1" y="298.5" fill="none" stroke="#DB5333" stroke-width="1.24" stroke-miterlimit="10" width="31" height="31"/>
	</g>
	<g>
		<g>
			<path fill="#EC1C24" d="M18.3,317.6l-0.8-0.6c-0.2-0.2-0.6-0.5-0.6-1c0-0.5,0.3-0.8,0.6-1.1c0.9-0.7,1.9-1.5,1.9-3.2
				c0-1.7-1.1-2.6-1.6-3h1.4l1.5-0.9h-4.4c-1.2,0-3,0.3-4.2,1.3c-1,0.8-1.4,2-1.4,3c0,1.8,1.3,3.5,3.7,3.5c0.2,0,0.5,0,0.7,0
				c-0.1,0.3-0.2,0.5-0.2,0.9c0,0.7,0.4,1.1,0.7,1.5c-1,0.1-2.9,0.2-4.3,1c-1.3,0.8-1.7,1.9-1.7,2.7c0,1.7,1.6,3.2,4.8,3.2
				c3.9,0,5.9-2.1,5.9-4.2C20.2,319.2,19.3,318.4,18.3,317.6z M15.4,315c-1.9,0-2.8-2.5-2.8-4c0-0.6,0.1-1.2,0.5-1.7
				c0.4-0.5,1-0.7,1.6-0.7c1.9,0,2.8,2.5,2.8,4.1c0,0.4,0,1.1-0.6,1.6C16.6,314.7,16,315,15.4,315z M15.4,324
				c-2.4,0-3.9-1.1-3.9-2.7c0-1.6,1.4-2.1,1.9-2.3c0.9-0.3,2.2-0.4,2.4-0.4c0.2,0,0.3,0,0.5,0c1.7,1.2,2.4,1.8,2.4,3
				C18.7,323,17.6,324,15.4,324z"/>
			<polygon fill="#EC1C24" points="24,314.9 24,312.7 22.9,312.7 22.9,314.9 20.7,314.9 20.7,316.1 22.9,316.1 22.9,318.3 24,318.3 
				24,316.1 26.3,316.1 26.3,314.9 			"/>
		</g>
	</g>
</g>
</svg>
